PathFileType	4	(x/y/z)	S02_M20_T11
DataRate	CameraRate	NumFrames	NumMarkers	Units	OrigDataRate	OrigDataStartFrame	OrigNumFrames
240	240	9	51	mm	240	175	466
Frame#	Time	Sternum			R.Acromium			L.Acromium			Top.Head			R.ASIS			L.ASIS			R.PSIS			L.PSIS			R.Great.Tro			L.Great.Tro			R.Iliac.Crest			L.Iliac.Crest			V.Sacral			R.Thigh.Upper.Post			R.Thigh.Lower.Ant			R.Thigh.Lower.Post			R.Thigh.Upper.Ant			R.Knee.Lat			R.Knee.Med			R.Shank.Upper.Post			R.Shank.Lower.Ant			R.Shank.Lower.Post			R.Shank.Upper.Ant			R.Ankle.Lat			R.Ankle.Med			R.Heel.Upper			R.Heel.Med			R.Heel.Lat			R.Toe.Lat			R.Toe.Med			R.Toe.Tip			L.Thigh.Upper.Post			L.Thigh.Lower.Ant			L.Thigh.Lower.Post			L.Thigh.Upper.Ant			L.Knee.Lat			L.Knee.Med			L.Shank.Upper.Post			L.Shank.Lower.Ant			L.Shank.Lower.Post			L.Shank.Upper.Ant			L.Ankle.Lat			L.Ankle.Med			L.Heel.Upper			L.Heel.Med			L.Heel.Lat			L.Toe.Lat			L.Toe.Med			L.Toe.Tip			Cervical.Spine			Back			
		X1	Y1	Z1	X2	Y2	Z2	X3	Y3	Z3	X4	Y4	Z4	X5	Y5	Z5	X6	Y6	Z6	X7	Y7	Z7	X8	Y8	Z8	X9	Y9	Z9	X10	Y10	Z10	X11	Y11	Z11	X12	Y12	Z12	X13	Y13	Z13	X14	Y14	Z14	X15	Y15	Z15	X16	Y16	Z16	X17	Y17	Z17	X18	Y18	Z18	X19	Y19	Z19	X20	Y20	Z20	X21	Y21	Z21	X22	Y22	Z22	X23	Y23	Z23	X24	Y24	Z24	X25	Y25	Z25	X26	Y26	Z26	X27	Y27	Z27	X28	Y28	Z28	X29	Y29	Z29	X30	Y30	Z30	X31	Y31	Z31	X32	Y32	Z32	X33	Y33	Z33	X34	Y34	Z34	X35	Y35	Z35	X36	Y36	Z36	X37	Y37	Z37	X38	Y38	Z38	X39	Y39	Z39	X40	Y40	Z40	X41	Y41	Z41	X42	Y42	Z42	X43	Y43	Z43	X44	Y44	Z44	X45	Y45	Z45	X46	Y46	Z46	X47	Y47	Z47	X48	Y48	Z48	X49	Y49	Z49	X50	Y50	Z50	X51	Y51	Z51	

175	0.725	-584.12	1053.5	286.76	-701.28	1285.8	437.79	-680.47	1297.9	148.01	-655.09	1578.4	306.64	-601.35	884.01	377.2	-623.75	861.57	163.05	-823.19	931.28	341.91	-834.92	932.79	269.14	-644.57	786.33	472.9	-775.74	786.47	92.937	-697.5	934.71	446.51	-748.5	919.86	109.42	-853.9	884.21	304.51	-554.11	608.11	446.11	-477.86	562.82	395.35	-531.79	522.71	424.3	-505.03	646.31	415.53	-484.61	462.29	399.06	-513.03	445.93	261.05	-531.24	245.2	394.1	-450.73	176.26	361.95	-515.73	174.09	380.52	-460.12	243.94	380.27	-492.6	86.039	362.1	-490.58	97.518	280.65	-555.04	71.427	309.73	-541.35	39.532	282.16	-548.56	40.774	346.19	-384.8	41.075	378.89	-358.81	36.002	271.29	-308.65	66.203	322.71	-864.16	589.94	133	-818.54	489.86	120.11	-891.32	504.81	151.8	-797.84	581.77	104.3	-865.24	420.94	130.21	-848.11	407.1	265.17	-1041.7	353.18	141.07	-1057.5	244.38	147.61	-1096.6	304.17	157.4	-1005	300.06	132.45	-1157.3	191.43	163.8	-1151.3	189.84	245.84	-1218.2	221.69	199.53	-1230.6	206.47	238.33	-1239.8	198.47	176.42	-1155.4	58.103	159.34	-1129.9	64.898	266.86	-1082.1	40.763	225.87	-772.98	1355.1	290.97	-848.56	1104.1	281.32
176	0.72917	-577.86	1054.2	287.37	-695.1	1286.2	438.51	-674.57	1298.5	148.91	-649.15	1579.1	307.63	-595.05	885.1	377.82	-617.27	862.06	163.75	-816.9	931.76	341.64	-828.5	933.14	268.86	-638.45	787.58	473.28	-768.8	786	93.191	-691.62	935.58	446.64	-741.69	920.39	109.64	-847.71	884.69	304.32	-548.03	608.75	446.59	-472.01	563.2	395.71	-526	523.27	424.8	-498.89	646.78	415.88	-479.25	462.41	399.35	-507.16	446.54	261.39	-528.36	245.75	394.41	-448.8	175.8	361.98	-513.79	174.47	380.75	-457.27	243.58	380.41	-492.03	86.107	362.13	-489.99	97.609	280.79	-554.77	71.698	309.83	-541.22	39.784	282.23	-548.38	41.009	346.27	-384.55	40.706	378.85	-358.59	35.306	271.13	-308.2	65.19	322.54	-856.06	588.88	132.98	-809.62	489.22	119.7	-882.52	503.47	151.53	-789.67	581.36	104.23	-856.03	420.15	129.53	-838.17	405.64	264.22	-1033	354.45	140.75	-1049.9	245.67	147	-1088.8	306.13	157	-997.36	300.98	131.73	-1150.5	194.23	163.17	-1144.3	192.45	245.3	-1210	226.42	198.99	-1222.9	211.73	237.9	-1232.5	203.96	176.02	-1152.9	60.683	159.19	-1126.5	66.853	266.44	-1080.1	40.046	225.34	-766.95	1355.7	291.9	-842.36	1104.6	281.78
177	0.73333	-571.67	1055	287.97	-688.99	1286.7	439.23	-668.74	1299.3	149.77	-643.24	1579.8	308.6	-588.81	886.26	378.42	-610.84	862.63	164.45	-810.65	932.27	341.38	-822.08	933.52	268.61	-632.41	788.83	473.7	-761.89	785.61	93.467	-685.8	936.5	446.77	-734.94	920.96	109.86	-841.56	885.2	304.14	-542.14	609.27	447.1	-466.35	563.44	396.11	-520.43	523.72	425.29	-492.89	647.11	416.29	-474.15	462.42	399.68	-501.42	447.07	261.74	-525.66	246.27	394.67	-447	175.35	362.04	-511.99	174.84	380.95	-454.6	243.22	380.57	-491.52	86.178	362.15	-489.45	97.712	280.91	-554.53	71.939	309.92	-541.1	40.01	282.29	-548.22	41.221	346.34	-384.34	40.411	378.83	-358.4	34.723	270.98	-307.82	64.321	322.4	-847.92	587.85	132.92	-800.62	488.64	119.26	-873.64	502.16	151.22	-781.46	581	104.13	-846.72	419.39	128.81	-828.1	404.21	263.24	-1024.1	355.73	140.43	-1042.1	246.97	146.4	-1080.7	308.09	156.6	-989.62	301.92	131.01	-1143.5	197.03	162.55	-1137.1	195.05	244.79	-1201.5	231.12	198.46	-1214.8	216.93	237.47	-1224.9	209.42	175.64	-1150	63.385	159.01	-1122.8	68.876	265.99	-1078	39.333	224.75	-760.97	1356.3	292.82	-836.2	1105.2	282.23
178	0.7375	-565.52	1055.9	288.56	-682.93	1287.3	439.93	-663	1300.1	150.59	-637.35	1580.5	309.56	-582.65	887.48	379.03	-604.45	863.27	165.15	-804.45	932.82	341.14	-815.69	933.94	268.37	-626.44	790.05	474.15	-755.01	785.3	93.765	-680.01	937.46	446.9	-728.26	921.57	110.1	-835.44	885.76	303.97	-536.45	609.69	447.62	-460.88	563.55	396.57	-515.11	524.06	425.77	-487.04	647.32	416.77	-469.31	462.34	400.05	-495.83	447.52	262.08	-523.12	246.77	394.87	-445.33	174.9	362.14	-510.33	175.19	381.1	-452.1	242.84	380.76	-491.06	86.25	362.16	-488.97	97.824	281.02	-554.32	72.153	310	-541	40.212	282.34	-548.07	41.412	346.41	-384.15	40.178	378.81	-358.24	34.242	270.85	-307.49	63.582	322.27	-839.74	586.84	132.83	-791.54	488.11	118.79	-864.67	500.89	150.88	-773.2	580.7	104	-837.3	418.68	128.06	-817.89	402.84	262.23	-1015.1	356.99	140.1	-1034	248.29	145.81	-1072.5	310.03	156.19	-981.76	302.89	130.28	-1136.2	199.83	161.95	-1129.6	197.64	244.3	-1192.7	235.75	197.96	-1206.4	222.06	237.04	-1217	214.84	175.29	-1146.9	66.19	158.82	-1118.8	70.95	265.5	-1075.5	38.639	224.09	-755.03	1356.9	293.7	-830.09	1105.9	282.68
179	0.74167	-559.43	1056.9	289.12	-676.93	1287.9	440.62	-657.33	1300.9	151.38	-631.48	1581.2	310.5	-576.55	888.75	379.62	-598.11	863.98	165.85	-798.3	933.41	340.92	-809.33	934.39	268.17	-620.52	791.24	474.63	-748.15	785.07	94.088	-674.27	938.47	447.05	-721.65	922.2	110.35	-829.37	886.34	303.82	-530.96	610.01	448.15	-455.61	563.52	397.06	-510.03	524.29	426.23	-481.35	647.41	417.31	-464.72	462.17	400.46	-490.43	447.88	262.42	-520.76	247.23	395.01	-443.78	174.46	362.26	-508.81	175.53	381.21	-449.76	242.45	380.97	-490.64	86.322	362.17	-488.54	97.944	281.12	-554.14	72.343	310.07	-540.91	40.392	282.39	-547.94	41.586	346.47	-384	39.999	378.81	-358.09	33.847	270.74	-307.21	62.956	322.17	-831.52	585.88	132.71	-782.4	487.65	118.29	-855.64	499.65	150.51	-764.91	580.45	103.84	-827.78	418.02	127.28	-807.56	401.52	261.2	-1005.9	358.25	139.76	-1025.8	249.62	145.24	-1064.1	311.97	155.78	-973.78	303.89	129.55	-1128.6	202.62	161.38	-1121.8	200.21	243.84	-1183.6	240.3	197.48	-1197.7	227.07	236.61	-1208.7	220.18	174.96	-1143.3	69.077	158.62	-1114.4	73.057	264.97	-1072.8	37.983	223.37	-749.15	1357.6	294.56	-824.02	1106.5	283.13
180	0.74583	-553.4	1057.9	289.67	-671	1288.6	441.29	-651.74	1301.8	152.11	-625.64	1582	311.43	-570.53	890.05	380.2	-591.82	864.77	166.54	-792.2	934.04	340.75	-803	934.88	268.01	-614.65	792.4	475.15	-741.34	784.92	94.434	-668.56	939.51	447.22	-715.14	922.86	110.61	-823.34	886.96	303.72	-525.67	610.22	448.68	-450.53	563.37	397.6	-505.19	524.42	426.67	-475.81	647.37	417.9	-460.36	461.91	400.88	-485.25	448.15	262.76	-518.56	247.67	395.1	-442.35	174.02	362.41	-507.41	175.84	381.28	-447.58	242.06	381.19	-490.27	86.395	362.18	-488.14	98.07	281.21	-553.97	72.513	310.13	-540.84	40.552	282.44	-547.82	41.744	346.52	-383.86	39.864	378.81	-357.97	33.527	270.63	-306.98	62.429	322.08	-823.26	584.97	132.57	-773.2	487.25	117.78	-846.54	498.46	150.13	-756.57	580.27	103.66	-818.17	417.42	126.49	-797.13	400.28	260.16	-996.48	359.51	139.42	-1017.5	250.96	144.67	-1055.6	313.88	155.38	-965.67	304.91	128.83	-1120.8	205.39	160.84	-1113.8	202.74	243.41	-1174.3	244.74	197.04	-1188.8	231.94	236.21	-1200.2	225.39	174.68	-1139.4	72.024	158.39	-1109.6	75.179	264.41	-1069.7	37.383	222.58	-743.32	1358.3	295.39	-818	1107.2	283.59
181	0.75	-547.42	1059	290.18	-665.11	1289.3	441.96	-646.24	1302.7	152.81	-619.83	1582.8	312.33	-564.57	891.37	380.78	-585.59	865.63	167.22	-786.14	934.71	340.62	-796.73	935.4	267.9	-608.83	793.51	475.69	-734.57	784.86	94.805	-662.87	940.57	447.41	-708.71	923.55	110.89	-817.34	887.61	303.65	-520.59	610.35	449.2	-445.65	563.09	398.16	-500.59	524.47	427.09	-470.43	647.22	418.54	-456.24	461.58	401.33	-480.32	448.35	263.09	-516.5	248.08	395.16	-441.03	173.59	362.58	-506.12	176.15	381.33	-445.55	241.67	381.42	-489.94	86.468	362.18	-487.79	98.202	281.29	-553.83	72.667	310.18	-540.78	40.697	282.49	-547.71	41.89	346.57	-383.75	39.766	378.82	-357.86	33.271	270.54	-306.77	61.987	322	-814.97	584.1	132.41	-763.95	486.93	117.25	-837.37	497.33	149.73	-748.21	580.16	103.46	-808.48	416.88	125.69	-786.61	399.12	259.12	-986.95	360.75	139.07	-1008.9	252.31	144.11	-1046.8	315.77	154.99	-957.43	305.95	128.12	-1112.8	208.12	160.33	-1105.5	205.21	243.01	-1164.7	249.03	196.65	-1179.5	236.64	235.84	-1191.5	230.45	174.44	-1135.1	75.005	158.14	-1104.4	77.295	263.81	-1066.2	36.862	221.73	-737.55	1359	296.2	-812.02	1107.9	284.06
182	0.75417	-541.49	1060.1	290.66	-659.28	1290.1	442.6	-640.8	1303.7	153.46	-614.05	1583.7	313.2	-558.69	892.7	381.34	-579.41	866.56	167.89	-780.14	935.42	340.54	-790.51	935.97	267.84	-603.05	794.57	476.25	-727.85	784.88	95.2	-657.19	941.66	447.64	-702.37	924.26	111.17	-811.39	888.28	303.63	-515.69	610.39	449.71	-440.96	562.72	398.76	-496.22	524.43	427.48	-465.22	646.97	419.21	-452.33	461.18	401.78	-475.66	448.47	263.42	-514.58	248.46	395.17	-439.81	173.17	362.77	-504.94	176.43	381.34	-443.65	241.28	381.66	-489.64	86.542	362.18	-487.47	98.34	281.35	-553.71	72.806	310.22	-540.72	40.829	282.54	-547.62	42.025	346.62	-383.65	39.697	378.83	-357.77	33.068	270.45	-306.6	61.619	321.94	-806.64	583.29	132.24	-754.66	486.68	116.71	-828.15	496.25	149.33	-739.82	580.11	103.24	-798.7	416.4	124.87	-776.02	398.06	258.09	-977.28	361.98	138.73	-1000.2	253.67	143.57	-1037.9	317.61	154.62	-949.05	307.01	127.41	-1104.6	210.8	159.85	-1097	207.63	242.64	-1155	253.16	196.31	-1170.1	241.12	235.51	-1182.5	235.33	174.25	-1130.3	77.995	157.86	-1098.7	79.386	263.18	-1062.3	36.439	220.82	-731.83	1359.7	296.99	-806.09	1108.6	284.54
183	0.75833	-535.63	1061.3	291.1	-653.5	1290.9	443.24	-635.45	1304.7	154.07	-608.31	1584.6	314.05	-552.86	894.03	381.89	-573.28	867.55	168.55	-774.18	936.17	340.52	-784.35	936.58	267.83	-597.3	795.58	476.84	-721.18	784.99	95.618	-651.53	942.77	447.91	-696.14	925	111.47	-805.47	889	303.66	-510.99	610.36	450.21	-436.46	562.25	399.37	-492.07	524.32	427.85	-460.16	646.63	419.91	-448.62	460.75	402.22	-471.3	448.52	263.73	-512.79	248.81	395.16	-438.68	172.76	362.96	-503.85	176.7	381.33	-441.89	240.89	381.91	-489.36	86.615	362.17	-487.17	98.482	281.41	-553.6	72.934	310.26	-540.67	40.953	282.58	-547.53	42.152	346.66	-383.57	39.65	378.84	-357.69	32.91	270.38	-306.45	61.312	321.88	-798.28	582.54	132.06	-745.32	486.51	116.16	-818.88	495.24	148.92	-731.41	580.14	103.01	-788.85	416	124.04	-765.36	397.12	257.08	-967.48	363.2	138.4	-991.39	255.02	143.05	-1028.7	319.42	154.29	-940.51	308.08	126.72	-1096.2	213.42	159.41	-1088.3	209.97	242.31	-1145.1	257.1	196.05	-1160.4	245.37	235.23	-1173.2	239.97	174.13	-1125.1	80.967	157.55	-1092.6	81.435	262.51	-1057.9	36.136	219.85	-726.15	1360.5	297.75	-800.21	1109.4	285.03
